<svg version="1.2" xmlns="http://www.w3.org/2000/svg" viewBox="0 0 226 226" width="50" height="50">
	<title>Boston_Bruins-svg</title>
	<style>
		.s0 { fill: #ffffff } 
		.s1 { fill: #fcb514 } 
	</style>
	<path id="Layer" class="s0" d="m164.2 101.3h39.8q-0.8-6.2-2.3-12.3-1.6-6-4-11.8-2.4-5.8-5.6-11.2-3.2-5.4-7-10.4l-20.9 20.9zm-62.9-51.2v-29.2q-6.2 0.8-12.3 2.4-6 1.6-11.8 4-5.8 2.4-11.2 5.5-5.4 3.2-10.4 7.1l10.3 10.2h35.4zm62.9 73.5v24.9l20.9 20.8q3.9-4.9 7-10.3 3.2-5.4 5.6-11.2 2.4-5.8 4-11.9 1.6-6.1 2.3-12.3zm-13.4-65.2l18.5-18.5q-5-3.9-10.4-7-5.4-3.2-11.2-5.6-5.8-2.4-11.8-4-6.1-1.6-12.3-2.3v29.2h18.8zm-82.3 25.9l-28.7-28.7q-3.8 5-7 10.4-3.2 5.4-5.6 11.2-2.4 5.8-4 11.8-1.6 6.1-2.3 12.3h47.6zm0 56.4v-17h-47.6q0.7 6.2 2.3 12.3 1.6 6 4 11.8 2.4 5.8 5.6 11.2 3.2 5.4 7 10.4zm73.9 34.1h-18.8v29.2q6.2-0.7 12.3-2.3 6.1-1.6 11.9-4 5.8-2.4 11.2-5.6 5.4-3.1 10.4-7l-18.5-18.5zm-41.1 0h-35.4l-10.3 10.3q5 3.8 10.4 7 5.4 3.2 11.2 5.6 5.8 2.4 11.8 4 6.1 1.5 12.3 2.3z"/>
	<path id="Layer" class="s1" d="m137.7 96.9v-14.5l-7.6-7.4h-36.3v29.4h36.2zm0 45.6v-14.6l-7.6-7.4h-36.3v29.4h36.3z"/>
</svg>